<svg width="180" height="180" viewBox="0 0 180 180" fill="none" xmlns="http://www.w3.org/2000/svg">
<g clip-path="url(#clip0_7608_11506)">
<path d="M52.9087 84.7707C51.0967 82.6555 48.6441 81.5959 45.5469 81.5959C42.43 81.5959 39.9145 82.8282 37.9885 85.2966C36.0626 87.7651 35.1035 91.0223 35.1035 95.0801V95.4216C35.1035 99.4598 36.0704 102.733 38.0003 105.24C39.9341 107.748 42.43 109 45.4958 109C48.7267 109 51.2461 107.893 53.0541 105.68L53.2742 108.513H57.4327V71H52.9087V84.7707ZM52.9087 101.304C51.5881 103.879 49.4931 105.162 46.6238 105.162C44.4385 105.162 42.7248 104.314 41.4867 102.623C40.2486 100.931 39.6275 98.5846 39.6275 95.5903C39.6275 92.2349 40.2486 89.7037 41.4867 87.9966C42.7248 86.2856 44.4542 85.43 46.671 85.43C49.4734 85.43 51.5566 86.6741 52.9087 89.1661V101.304Z" fill="#E0FF98"/>
<path d="M71.1935 81.5938C69.0907 81.5938 67.1372 82.1746 65.3331 83.3401C63.529 84.5057 62.1298 86.1147 61.1235 88.175C60.1213 90.2353 59.6182 92.5742 59.6182 95.1957V96.0277C59.6182 99.9678 60.7423 103.115 62.9945 105.466C65.2466 107.821 68.1631 108.994 71.7516 108.994C76.1892 108.994 79.5144 107.295 81.7312 103.888L78.968 101.738C78.1348 102.813 77.1679 103.676 76.0595 104.328C74.9511 104.979 73.595 105.305 71.9993 105.305C69.7471 105.305 67.8919 104.504 66.4337 102.899C64.9754 101.294 64.2129 99.1908 64.1461 96.585H82.0771V94.7052C82.0771 90.4864 81.122 87.2488 79.2157 84.9844C77.3094 82.724 74.6327 81.5938 71.1935 81.5938ZM77.5531 92.8764H64.2955C64.5903 90.4825 65.3567 88.6224 66.5948 87.2959C67.8329 85.9695 69.3658 85.3062 71.1935 85.3062C73.0841 85.3062 74.5855 85.9381 75.6939 87.1978C76.8023 88.4615 77.4234 90.2392 77.5531 92.535V92.8764Z" fill="#E0FF98"/>
<path d="M93.24 102.383L86.5149 82.0859H81.8887L91.4791 108.513H94.9301L104.418 82.0859H99.7961L93.24 102.383Z" fill="#E0FF98"/>
<path d="M111.182 82.0859H106.658V108.513H111.182V82.0859Z" fill="#E0FF98"/>
<path d="M108.958 72.4609C108.077 72.4609 107.413 72.7121 106.965 73.2183C106.517 73.7246 106.293 74.3407 106.293 75.0746C106.293 75.8085 106.517 76.4167 106.965 76.9073C107.413 77.3939 108.077 77.6412 108.958 77.6412C109.838 77.6412 110.506 77.3978 110.962 76.9073C111.418 76.4207 111.646 75.8085 111.646 75.0746C111.646 74.3407 111.418 73.7246 110.962 73.2183C110.506 72.716 109.842 72.4609 108.958 72.4609Z" fill="#E0FF98"/>
<path d="M127.271 81.5938C124.008 81.5938 121.367 82.8653 119.347 85.4043L119.201 82.0843H114.921V108.511H119.445V89.6819C120.066 88.4104 120.931 87.3862 122.039 86.6052C123.147 85.8243 124.437 85.4318 125.903 85.4318C127.715 85.4318 129.047 85.887 129.9 86.8014C130.757 87.7119 131.193 89.1208 131.209 91.028V108.515H135.733V91.0516C135.686 84.745 132.868 81.5938 127.271 81.5938Z" fill="#E0FF98"/>
<path d="M145.854 104.371C145.414 103.841 145.193 103.045 145.193 101.989V85.5809H150.134V82.0882H145.193V75.6875H140.669V82.0882H135.851V85.5809H140.669V101.969C140.669 104.218 141.184 105.949 142.21 107.173C143.236 108.393 144.761 109.006 146.785 109.006C147.909 109.006 149.069 108.845 150.26 108.519V104.877C149.348 105.073 148.629 105.172 148.106 105.172C147.045 105.168 146.294 104.901 145.854 104.371Z" fill="#E0FF98"/>
<path d="M173.069 102.33V90.1686C173.002 87.5 172.106 85.4004 170.38 83.8778C168.651 82.3551 166.261 81.5938 163.211 81.5938C161.285 81.5938 159.52 81.9509 157.916 82.669C156.309 83.3872 155.039 84.3565 154.1 85.5888C153.16 86.8171 152.693 88.0926 152.693 89.4112H157.244C157.244 88.2535 157.791 87.2684 158.883 86.4561C159.976 85.6437 161.328 85.2356 162.944 85.2356C164.787 85.2356 166.182 85.7026 167.126 86.6405C168.073 87.5785 168.545 88.8343 168.545 90.4158V92.4918H164.142C160.342 92.4918 157.394 93.2532 155.299 94.7758C153.204 96.2985 152.154 98.4373 152.154 101.188C152.154 103.453 152.991 105.321 154.662 106.792C156.332 108.268 158.475 109.002 161.084 109.002C164.005 109.002 166.516 107.911 168.619 105.729C168.78 107.063 168.993 107.993 169.256 108.511H174V108.119C173.379 106.686 173.069 104.756 173.069 102.33ZM168.545 101.106C167.975 102.279 167.051 103.229 165.781 103.963C164.508 104.697 163.164 105.062 161.745 105.062C160.263 105.062 159.044 104.661 158.101 103.865C157.154 103.068 156.682 101.961 156.682 100.545C156.682 97.3031 159.453 95.6824 164.999 95.6824H168.545V101.106Z" fill="#E0FF98"/>
<path d="M22.6083 72.9531H18.497L8.53711 99.1917H32.7412L22.6083 72.9531ZM20.5527 78.7416L26.6764 95.3732H14.5704L20.5527 78.7416Z" fill="#E0FF98"/>
<path d="M29.1377 102.047L31.5157 108.51H36.3345L33.8425 102.047H29.1377Z" fill="#E0FF98"/>
<path d="M5 108.51H9.84238L12.1692 102.047H7.45264L5 108.51Z" fill="#E0FF98"/>
</g>
<defs>
<clipPath id="clip0_7608_11506">
<rect width="169" height="38" fill="white" transform="translate(5 71)"/>
</clipPath>
</defs>
</svg>
