<svg width="180" height="180" viewBox="0 0 180 180" fill="none" xmlns="http://www.w3.org/2000/svg">
<path d="M104.674 107.453V106.239C110.395 104.679 115.133 100.518 115.133 89.6542C115.133 84.1645 115.133 71.567 115.133 71.567C115.133 66.7129 115.596 62.2055 117.04 58.1027C115.538 57.6404 113.631 57.0625 110.106 57.0625C103.403 57.0625 98.3176 60.4719 98.2598 68.6198V122.997H146.512V107.453H104.674Z" fill="#E0FF98"/>
<path d="M83.581 57C80.056 57 78.3224 57.5779 76.82 58.0402C78.2068 62.2008 78.4958 66.6504 78.4958 70.4643V88.3782C78.4958 94.7347 80.1138 98.722 82.3675 101.958L81.0384 102.767L52.434 57.9246H34V122.992H50.6426V95.6593C50.6426 90.5163 49.9491 85.6044 48.6778 82.5417C49.3135 82.195 49.8336 81.8483 49.8336 81.8483C51.5672 85.0266 52.8963 87.4536 54.5143 89.9384L76.1265 122.992H95.3695V68.8463C95.3695 60.525 90.3421 57 83.581 57Z" fill="#E0FF98"/>
</svg>
